<svg width="1104" height="442" xmlns="http://www.w3.org/2000/svg" xmlns:xlink="http://www.w3.org/1999/xlink" xml:space="preserve" overflow="hidden"><defs><clipPath id="clip0"><rect x="88" y="199" width="1104" height="442"/></clipPath><clipPath id="clip1"><rect x="124" y="257" width="1061" height="343"/></clipPath></defs><g clip-path="url(#clip0)" transform="translate(-88 -199)"><path d="M0 0 1104 0 1104 441.605 1.9017e-05 441.605Z" fill="#FFFFFF" transform="matrix(1 0 0 1.00002 88 199.192)"/><path d="M0-7.3999e-14 1104-7.3999e-14 1104 441.605 1.9017e-05 441.605Z" stroke="#FFFFFF" stroke-width="1.3891" stroke-linecap="round" stroke-linejoin="round" stroke-miterlimit="10" fill="#FFFFFF" transform="matrix(1 0 0 1.00002 88 199.192)"/><g clip-path="url(#clip1)"><path d="M36.662 58.0048 1096.89 58.0048 1096.89 400.711 36.6619 400.711Z" fill="#FFFFFF" transform="matrix(1 0 0 1.00002 88 199.192)"/><path d="M36.662 344.173 1096.89 344.173" stroke="#EBEBEB" stroke-width="0.688061" stroke-linejoin="round" stroke-miterlimit="10" fill="none" transform="matrix(1 0 0 1.00002 88 199.192)"/><path d="M36.662 230.825 1096.89 230.825" stroke="#EBEBEB" stroke-width="0.688061" stroke-linejoin="round" stroke-miterlimit="10" fill="none" transform="matrix(1 0 0 1.00002 88 199.192)"/><path d="M36.662 117.477 1096.89 117.477" stroke="#EBEBEB" stroke-width="0.688061" stroke-linejoin="round" stroke-miterlimit="10" fill="none" transform="matrix(1 0 0 1.00002 88 199.192)"/><path d="M225.191 400.711 225.191 58.0048" stroke="#EBEBEB" stroke-width="0.688061" stroke-linejoin="round" stroke-miterlimit="10" fill="none" transform="matrix(1 0 0 1.00002 88 199.192)"/><path d="M575.284 400.711 575.284 58.0048" stroke="#EBEBEB" stroke-width="0.688061" stroke-linejoin="round" stroke-miterlimit="10" fill="none" transform="matrix(1 0 0 1.00002 88 199.192)"/><path d="M925.364 400.711 925.364 58.0048" stroke="#EBEBEB" stroke-width="0.688061" stroke-linejoin="round" stroke-miterlimit="10" fill="none" transform="matrix(1 0 0 1.00002 88 199.192)"/><path d="M36.662 287.493 1096.89 287.493" stroke="#EBEBEB" stroke-width="1.3891" stroke-linejoin="round" stroke-miterlimit="10" fill="none" transform="matrix(1 0 0 1.00002 88 199.192)"/><path d="M36.662 174.157 1096.89 174.157" stroke="#EBEBEB" stroke-width="1.3891" stroke-linejoin="round" stroke-miterlimit="10" fill="none" transform="matrix(1 0 0 1.00002 88 199.192)"/><path d="M36.662 60.809 1096.89 60.809" stroke="#EBEBEB" stroke-width="1.3891" stroke-linejoin="round" stroke-miterlimit="10" fill="none" transform="matrix(1 0 0 1.00002 88 199.192)"/><path d="M50.1505 400.711 50.1505 58.0048" stroke="#EBEBEB" stroke-width="1.3891" stroke-linejoin="round" stroke-miterlimit="10" fill="none" transform="matrix(1 0 0 1.00002 88 199.192)"/><path d="M400.231 400.711 400.231 58.0048" stroke="#EBEBEB" stroke-width="1.3891" stroke-linejoin="round" stroke-miterlimit="10" fill="none" transform="matrix(1 0 0 1.00002 88 199.192)"/><path d="M750.324 400.711 750.324 58.0048" stroke="#EBEBEB" stroke-width="1.3891" stroke-linejoin="round" stroke-miterlimit="10" fill="none" transform="matrix(1 0 0 1.00002 88 199.192)"/><path d="M-1023.56 748.467 2157.12-281.313" stroke="#000000" stroke-width="1.3891" stroke-linejoin="round" stroke-miterlimit="10" fill="none" transform="matrix(1 0 0 1.00002 88 199.192)"/><path d="M340.11 309.588C340.11 310.987 338.976 312.12 337.578 312.12 336.18 312.12 335.047 310.987 335.047 309.588 335.047 308.19 336.18 307.057 337.578 307.057 338.976 307.057 340.11 308.19 340.11 309.588Z" stroke="#440154" stroke-width="0.921742" stroke-linecap="round" stroke-linejoin="round" stroke-miterlimit="10" fill="#440154" transform="matrix(1 0 0 1.00002 88 199.192)"/><path d="M360.752 302.448C360.752 303.846 359.618 304.98 358.22 304.98 356.822 304.98 355.688 303.846 355.688 302.448 355.688 301.05 356.822 299.917 358.22 299.917 359.618 299.917 360.752 301.05 360.752 302.448Z" stroke="#440154" stroke-width="0.921742" stroke-linecap="round" stroke-linejoin="round" stroke-miterlimit="10" fill="#440154" transform="matrix(1 0 0 1.00002 88 199.192)"/><path d="M375.733 296.515C375.733 297.913 374.6 299.047 373.202 299.047 371.803 299.047 370.67 297.913 370.67 296.515 370.67 295.117 371.803 293.984 373.202 293.984 374.6 293.984 375.733 295.117 375.733 296.515Z" stroke="#440154" stroke-width="0.921742" stroke-linecap="round" stroke-linejoin="round" stroke-miterlimit="10" fill="#440154" transform="matrix(1 0 0 1.00002 88 199.192)"/><path d="M87.3837 385.132C87.3837 386.53 86.2503 387.664 84.8522 387.664 83.454 387.664 82.3206 386.53 82.3206 385.132 82.3206 383.734 83.454 382.601 84.8522 382.601 86.2503 382.601 87.3837 383.734 87.3837 385.132Z" stroke="#440154" stroke-width="0.921742" stroke-linecap="round" stroke-linejoin="round" stroke-miterlimit="10" fill="#440154" transform="matrix(1 0 0 1.00002 88 199.192)"/><path d="M503.985 262.268C503.985 263.666 502.852 264.8 501.453 264.8 500.055 264.8 498.922 263.666 498.922 262.268 498.922 260.87 500.055 259.736 501.453 259.736 502.852 259.736 503.985 260.87 503.985 262.268Z" stroke="#440154" stroke-width="0.921742" stroke-linecap="round" stroke-linejoin="round" stroke-miterlimit="10" fill="#440154" transform="matrix(1 0 0 1.00002 88 199.192)"/><path d="M374.682 298.852C374.682 300.25 373.548 301.384 372.15 301.384 370.752 301.384 369.618 300.25 369.618 298.852 369.618 297.454 370.752 296.321 372.15 296.321 373.548 296.321 374.682 297.454 374.682 298.852Z" stroke="#440154" stroke-width="0.921742" stroke-linecap="round" stroke-linejoin="round" stroke-miterlimit="10" fill="#440154" transform="matrix(1 0 0 1.00002 88 199.192)"/><path d="M182.648 350.184C182.648 351.582 181.514 352.716 180.116 352.716 178.718 352.716 177.585 351.582 177.585 350.184 177.585 348.786 178.718 347.652 180.116 347.652 181.514 347.652 182.648 348.786 182.648 350.184Z" stroke="#440154" stroke-width="0.921742" stroke-linecap="round" stroke-linejoin="round" stroke-miterlimit="10" fill="#440154" transform="matrix(1 0 0 1.00002 88 199.192)"/><path d="M304.396 320.39C304.396 321.788 303.262 322.921 301.864 322.921 300.466 322.921 299.332 321.788 299.332 320.39 299.332 318.992 300.466 317.858 301.864 317.858 303.262 317.858 304.396 318.992 304.396 320.39Z" stroke="#440154" stroke-width="0.921742" stroke-linecap="round" stroke-linejoin="round" stroke-miterlimit="10" fill="#440154" transform="matrix(1 0 0 1.00002 88 199.192)"/><path d="M674.923 205.276C674.923 206.674 673.789 207.807 672.391 207.807 670.993 207.807 669.86 206.674 669.86 205.276 669.86 203.878 670.993 202.744 672.391 202.744 673.789 202.744 674.923 203.878 674.923 205.276Z" stroke="#FDE725" stroke-width="0.921742" stroke-linecap="round" stroke-linejoin="round" stroke-miterlimit="10" fill="#FDE725" transform="matrix(1 0 0 1.00002 88 199.192)"/><path d="M335.332 310.861C335.332 312.259 334.199 313.392 332.801 313.392 331.403 313.392 330.269 312.259 330.269 310.861 330.269 309.463 331.403 308.329 332.801 308.329 334.199 308.329 335.332 309.463 335.332 310.861Z" stroke="#FDE725" stroke-width="0.921742" stroke-linecap="round" stroke-linejoin="round" stroke-miterlimit="10" fill="#FDE725" transform="matrix(1 0 0 1.00002 88 199.192)"/><path d="M733.927 199.122C733.927 200.52 732.794 201.654 731.396 201.654 729.997 201.654 728.864 200.52 728.864 199.122 728.864 197.724 729.997 196.591 731.396 196.591 732.794 196.591 733.927 197.724 733.927 199.122Z" stroke="#FDE725" stroke-width="0.921742" stroke-linecap="round" stroke-linejoin="round" stroke-miterlimit="10" fill="#FDE725" transform="matrix(1 0 0 1.00002 88 199.192)"/><path d="M546.463 214.454C546.463 215.852 545.33 216.986 543.932 216.986 542.533 216.986 541.4 215.852 541.4 214.454 541.4 213.056 542.533 211.923 543.932 211.923 545.33 211.923 546.463 213.056 546.463 214.454Z" stroke="#FDE725" stroke-width="0.921742" stroke-linecap="round" stroke-linejoin="round" stroke-miterlimit="10" fill="#FDE725" transform="matrix(1 0 0 1.00002 88 199.192)"/><path d="M510.541 250.792C510.541 252.19 509.408 253.323 508.01 253.323 506.611 253.323 505.478 252.19 505.478 250.792 505.478 249.394 506.611 248.26 508.01 248.26 509.408 248.26 510.541 249.394 510.541 250.792Z" stroke="#FDE725" stroke-width="0.921742" stroke-linecap="round" stroke-linejoin="round" stroke-miterlimit="10" fill="#FDE725" transform="matrix(1 0 0 1.00002 88 199.192)"/><path d="M777.872 174.482C777.872 175.88 776.739 177.013 775.341 177.013 773.943 177.013 772.809 175.88 772.809 174.482 772.809 173.084 773.943 171.95 775.341 171.95 776.739 171.95 777.872 173.084 777.872 174.482Z" stroke="#FDE725" stroke-width="0.921742" stroke-linecap="round" stroke-linejoin="round" stroke-miterlimit="10" fill="#FDE725" transform="matrix(1 0 0 1.00002 88 199.192)"/><path d="M1051.23 73.5836C1051.23 74.9817 1050.09 76.1151 1048.7 76.1151 1047.3 76.1151 1046.16 74.9817 1046.16 73.5836 1046.16 72.1854 1047.3 71.052 1048.7 71.052 1050.09 71.052 1051.23 72.1854 1051.23 73.5836Z" stroke="#FDE725" stroke-width="0.921742" stroke-linecap="round" stroke-linejoin="round" stroke-miterlimit="10" fill="#FDE725" transform="matrix(1 0 0 1.00002 88 199.192)"/><path d="M253.18 319.403C253.18 320.801 252.047 321.935 250.649 321.935 249.251 321.935 248.117 320.801 248.117 319.403 248.117 318.005 249.251 316.871 250.649 316.871 252.047 316.871 253.18 318.005 253.18 319.403Z" stroke="#FDE725" stroke-width="0.921742" stroke-linecap="round" stroke-linejoin="round" stroke-miterlimit="10" fill="#FDE725" transform="matrix(1 0 0 1.00002 88 199.192)"/><path d="M741.963 184.141C741.963 185.539 740.83 186.672 739.432 186.672 738.034 186.672 736.9 185.539 736.9 184.141 736.9 182.743 738.034 181.609 739.432 181.609 740.83 181.609 741.963 182.743 741.963 184.141Z" stroke="#FDE725" stroke-width="0.921742" stroke-linecap="round" stroke-linejoin="round" stroke-miterlimit="10" fill="#FDE725" transform="matrix(1 0 0 1.00002 88 199.192)"/><path d="M36.662 58.0048 1096.89 58.0048 1096.89 400.711 36.6619 400.711Z" stroke="#333333" stroke-width="1.3891" stroke-linecap="round" stroke-linejoin="round" stroke-miterlimit="10" fill="none" transform="matrix(1 0 0 1.00002 88 199.192)"/></g><text fill="#4D4D4D" font-family="Arial,Arial_MSFontService,sans-serif" font-weight="400" font-size="9" transform="matrix(1.29823 0 0 1.29826 111.771 491)">1</text><text fill="#4D4D4D" font-family="Arial,Arial_MSFontService,sans-serif" font-weight="400" font-size="9" transform="matrix(1.29823 0 0 1.29826 111.771 377)">2</text><text fill="#4D4D4D" font-family="Arial,Arial_MSFontService,sans-serif" font-weight="400" font-size="9" transform="matrix(1.29823 0 0 1.29826 111.771 264)">3</text><path d="M33.1048 287.493 36.662 287.493" stroke="#333333" stroke-width="1.3891" stroke-linejoin="round" stroke-miterlimit="10" fill="none" transform="matrix(1 0 0 1.00002 88 199.192)"/><path d="M33.1048 174.157 36.662 174.157" stroke="#333333" stroke-width="1.3891" stroke-linejoin="round" stroke-miterlimit="10" fill="none" transform="matrix(1 0 0 1.00002 88 199.192)"/><path d="M33.1048 60.809 36.662 60.809" stroke="#333333" stroke-width="1.3891" stroke-linejoin="round" stroke-miterlimit="10" fill="none" transform="matrix(1 0 0 1.00002 88 199.192)"/><path d="M50.1505 404.268 50.1505 400.711" stroke="#333333" stroke-width="1.3891" stroke-linejoin="round" stroke-miterlimit="10" fill="none" transform="matrix(1 0 0 1.00002 88 199.192)"/><path d="M400.231 404.268 400.231 400.711" stroke="#333333" stroke-width="1.3891" stroke-linejoin="round" stroke-miterlimit="10" fill="none" transform="matrix(1 0 0 1.00002 88 199.192)"/><path d="M750.324 404.268 750.324 400.711" stroke="#333333" stroke-width="1.3891" stroke-linejoin="round" stroke-miterlimit="10" fill="none" transform="matrix(1 0 0 1.00002 88 199.192)"/><text fill="#4D4D4D" font-family="Arial,Arial_MSFontService,sans-serif" font-weight="400" font-size="9" transform="matrix(1.29823 0 0 1.29826 134.905 614)">0</text><text fill="#4D4D4D" font-family="Arial,Arial_MSFontService,sans-serif" font-weight="400" font-size="9" transform="matrix(1.29823 0 0 1.29826 484.985 614)">1</text><text fill="#4D4D4D" font-family="Arial,Arial_MSFontService,sans-serif" font-weight="400" font-size="9" transform="matrix(1.29823 0 0 1.29826 835.078 614)">2</text><text font-family="Arial,Arial_MSFontService,sans-serif" font-weight="400" font-size="11" transform="matrix(1.29823 0 0 1.29826 634.658 631)">ratio</text><text font-family="Arial,Arial_MSFontService,sans-serif" font-weight="400" font-size="11" transform="matrix(1.29823 0 0 1.29826 661.921 631)">_</text><text font-family="Arial,Arial_MSFontService,sans-serif" font-weight="400" font-size="11" transform="matrix(1.29823 0 0 1.29826 669.71 631)">f</text><text font-family="Arial,Arial_MSFontService,sans-serif" font-weight="400" font-size="11" transform="matrix(7.94935e-17 -1.29826 1.29823 7.94954e-17 105.344 462)">ratio</text><text font-family="Arial,Arial_MSFontService,sans-serif" font-weight="400" font-size="11" transform="matrix(7.94935e-17 -1.29826 1.29823 7.94954e-17 105.344 434)">_</text><text font-family="Arial,Arial_MSFontService,sans-serif" font-weight="400" font-size="11" transform="matrix(7.94935e-17 -1.29826 1.29823 7.94954e-17 105.344 427)">hono</text><path d="M497.585 7.11429 635.976 7.11429 635.976 43.7762 497.585 43.7762Z" fill="#FFFFFF" transform="matrix(1 0 0 1.00002 88 199.192)"/><path d="M511.8 14.2286 534.234 14.2286 534.234 36.662 511.8 36.662Z" fill="#FFFFFF" transform="matrix(1 0 0 1.00002 88 199.192)"/><path d="M525.549 25.4453C525.549 26.8434 524.415 27.9768 523.017 27.9768 521.619 27.9768 520.486 26.8434 520.486 25.4453 520.486 24.0471 521.619 22.9137 523.017 22.9137 524.415 22.9137 525.549 24.0471 525.549 25.4453Z" stroke="#440154" stroke-width="0.921742" stroke-linecap="round" stroke-linejoin="round" stroke-miterlimit="10" fill="#440154" transform="matrix(1 0 0 1.00002 88 199.192)"/><path d="M573.895 14.2286 596.328 14.2286 596.328 36.662 573.895 36.662Z" fill="#FFFFFF" transform="matrix(1 0 0 1.00002 88 199.192)"/><path d="M587.643 25.4453C587.643 26.8434 586.509 27.9768 585.111 27.9768 583.713 27.9768 582.58 26.8434 582.58 25.4453 582.58 24.0471 583.713 22.9137 585.111 22.9137 586.509 22.9137 587.643 24.0471 587.643 25.4453Z" stroke="#FDE725" stroke-width="0.921742" stroke-linecap="round" stroke-linejoin="round" stroke-miterlimit="10" fill="#FDE725" transform="matrix(1 0 0 1.00002 88 199.192)"/><text font-family="Arial,Arial_MSFontService,sans-serif" font-weight="400" font-size="9" transform="matrix(1.29823 0 0 1.29826 629.348 229)">2015</text><text font-family="Arial,Arial_MSFontService,sans-serif" font-weight="400" font-size="9" transform="matrix(1.29823 0 0 1.29826 691.442 229)">2019</text></g></svg>