<svg width="581" height="491" xmlns="http://www.w3.org/2000/svg" xmlns:xlink="http://www.w3.org/1999/xlink" xml:space="preserve" overflow="hidden"><g transform="translate(-675 -191)"><path d="M675.237 191 1255.76 191 1255.76 682 675.237 682Z" fill="#FFFFFF"/><path d="M675.237 191 1255.76 191 1255.76 682 675.237 682Z" stroke="#FFFFFF" stroke-width="1.4257" stroke-linecap="round" stroke-linejoin="round" stroke-miterlimit="10" fill="#FFFFFF"/><g><path d="M739.287 250.533 1248.45 250.533 1248.45 640.042 739.287 640.042Z" fill="#FFFFFF"/><path d="M739.287 560.469 1248.46 560.469" stroke="#EBEBEB" stroke-width="0.706187" stroke-linejoin="round" stroke-miterlimit="10" fill="none"/><path d="M739.287 436.78 1248.46 436.78" stroke="#EBEBEB" stroke-width="0.706187" stroke-linejoin="round" stroke-miterlimit="10" fill="none"/><path d="M739.287 313.104 1248.46 313.104" stroke="#EBEBEB" stroke-width="0.706187" stroke-linejoin="round" stroke-miterlimit="10" fill="none"/><path d="M742.312 640.042 742.312 250.533" stroke="#EBEBEB" stroke-width="0.706187" stroke-linejoin="round" stroke-miterlimit="10" fill="none"/><path d="M752.371 640.042 752.371 250.533" stroke="#EBEBEB" stroke-width="0.706187" stroke-linejoin="round" stroke-miterlimit="10" fill="none"/><path d="M772.491 640.042 772.491 250.533" stroke="#EBEBEB" stroke-width="0.706187" stroke-linejoin="round" stroke-miterlimit="10" fill="none"/><path d="M792.624 640.042 792.624 250.533" stroke="#EBEBEB" stroke-width="0.706187" stroke-linejoin="round" stroke-miterlimit="10" fill="none"/><path d="M812.744 640.042 812.744 250.533" stroke="#EBEBEB" stroke-width="0.706187" stroke-linejoin="round" stroke-miterlimit="10" fill="none"/><path d="M832.863 640.042 832.863 250.533" stroke="#EBEBEB" stroke-width="0.706187" stroke-linejoin="round" stroke-miterlimit="10" fill="none"/><path d="M852.996 640.042 852.996 250.533" stroke="#EBEBEB" stroke-width="0.706187" stroke-linejoin="round" stroke-miterlimit="10" fill="none"/><path d="M873.116 640.042 873.116 250.533" stroke="#EBEBEB" stroke-width="0.706187" stroke-linejoin="round" stroke-miterlimit="10" fill="none"/><path d="M893.249 640.042 893.249 250.533" stroke="#EBEBEB" stroke-width="0.706187" stroke-linejoin="round" stroke-miterlimit="10" fill="none"/><path d="M913.369 640.042 913.369 250.533" stroke="#EBEBEB" stroke-width="0.706187" stroke-linejoin="round" stroke-miterlimit="10" fill="none"/><path d="M933.502 640.042 933.502 250.533" stroke="#EBEBEB" stroke-width="0.706187" stroke-linejoin="round" stroke-miterlimit="10" fill="none"/><path d="M953.621 640.042 953.621 250.533" stroke="#EBEBEB" stroke-width="0.706187" stroke-linejoin="round" stroke-miterlimit="10" fill="none"/><path d="M973.741 640.042 973.741 250.533" stroke="#EBEBEB" stroke-width="0.706187" stroke-linejoin="round" stroke-miterlimit="10" fill="none"/><path d="M993.874 640.042 993.874 250.533" stroke="#EBEBEB" stroke-width="0.706187" stroke-linejoin="round" stroke-miterlimit="10" fill="none"/><path d="M1013.99 640.042 1013.99 250.533" stroke="#EBEBEB" stroke-width="0.706187" stroke-linejoin="round" stroke-miterlimit="10" fill="none"/><path d="M1034.13 640.042 1034.13 250.533" stroke="#EBEBEB" stroke-width="0.706187" stroke-linejoin="round" stroke-miterlimit="10" fill="none"/><path d="M1054.25 640.042 1054.25 250.533" stroke="#EBEBEB" stroke-width="0.706187" stroke-linejoin="round" stroke-miterlimit="10" fill="none"/><path d="M1074.37 640.042 1074.37 250.533" stroke="#EBEBEB" stroke-width="0.706187" stroke-linejoin="round" stroke-miterlimit="10" fill="none"/><path d="M1094.5 640.042 1094.5 250.533" stroke="#EBEBEB" stroke-width="0.706187" stroke-linejoin="round" stroke-miterlimit="10" fill="none"/><path d="M1114.62 640.042 1114.62 250.533" stroke="#EBEBEB" stroke-width="0.706187" stroke-linejoin="round" stroke-miterlimit="10" fill="none"/><path d="M1134.75 640.042 1134.75 250.533" stroke="#EBEBEB" stroke-width="0.706187" stroke-linejoin="round" stroke-miterlimit="10" fill="none"/><path d="M1154.87 640.042 1154.87 250.533" stroke="#EBEBEB" stroke-width="0.706187" stroke-linejoin="round" stroke-miterlimit="10" fill="none"/><path d="M1175 640.042 1175 250.533" stroke="#EBEBEB" stroke-width="0.706187" stroke-linejoin="round" stroke-miterlimit="10" fill="none"/><path d="M1195.12 640.042 1195.12 250.533" stroke="#EBEBEB" stroke-width="0.706187" stroke-linejoin="round" stroke-miterlimit="10" fill="none"/><path d="M1215.24 640.042 1215.24 250.533" stroke="#EBEBEB" stroke-width="0.706187" stroke-linejoin="round" stroke-miterlimit="10" fill="none"/><path d="M1235.38 640.042 1235.38 250.533" stroke="#EBEBEB" stroke-width="0.706187" stroke-linejoin="round" stroke-miterlimit="10" fill="none"/><path d="M1245.44 640.042 1245.44 250.533" stroke="#EBEBEB" stroke-width="0.706187" stroke-linejoin="round" stroke-miterlimit="10" fill="none"/><path d="M739.287 622.307 1248.46 622.307" stroke="#EBEBEB" stroke-width="1.4257" stroke-linejoin="round" stroke-miterlimit="10" fill="none"/><path d="M739.287 498.631 1248.46 498.631" stroke="#EBEBEB" stroke-width="1.4257" stroke-linejoin="round" stroke-miterlimit="10" fill="none"/><path d="M739.287 374.942 1248.46 374.942" stroke="#EBEBEB" stroke-width="1.4257" stroke-linejoin="round" stroke-miterlimit="10" fill="none"/><path d="M739.287 251.252 1248.46 251.252" stroke="#EBEBEB" stroke-width="1.4257" stroke-linejoin="round" stroke-miterlimit="10" fill="none"/><path d="M762.431 640.042 762.431 250.533" stroke="#EBEBEB" stroke-width="1.4257" stroke-linejoin="round" stroke-miterlimit="10" fill="none"/><path d="M782.551 640.042 782.551 250.533" stroke="#EBEBEB" stroke-width="1.4257" stroke-linejoin="round" stroke-miterlimit="10" fill="none"/><path d="M802.684 640.042 802.684 250.533" stroke="#EBEBEB" stroke-width="1.4257" stroke-linejoin="round" stroke-miterlimit="10" fill="none"/><path d="M822.804 640.042 822.804 250.533" stroke="#EBEBEB" stroke-width="1.4257" stroke-linejoin="round" stroke-miterlimit="10" fill="none"/><path d="M842.937 640.042 842.937 250.533" stroke="#EBEBEB" stroke-width="1.4257" stroke-linejoin="round" stroke-miterlimit="10" fill="none"/><path d="M863.056 640.042 863.056 250.533" stroke="#EBEBEB" stroke-width="1.4257" stroke-linejoin="round" stroke-miterlimit="10" fill="none"/><path d="M883.189 640.042 883.189 250.533" stroke="#EBEBEB" stroke-width="1.4257" stroke-linejoin="round" stroke-miterlimit="10" fill="none"/><path d="M903.309 640.042 903.309 250.533" stroke="#EBEBEB" stroke-width="1.4257" stroke-linejoin="round" stroke-miterlimit="10" fill="none"/><path d="M923.429 640.042 923.429 250.533" stroke="#EBEBEB" stroke-width="1.4257" stroke-linejoin="round" stroke-miterlimit="10" fill="none"/><path d="M943.562 640.042 943.562 250.533" stroke="#EBEBEB" stroke-width="1.4257" stroke-linejoin="round" stroke-miterlimit="10" fill="none"/><path d="M963.681 640.042 963.681 250.533" stroke="#EBEBEB" stroke-width="1.4257" stroke-linejoin="round" stroke-miterlimit="10" fill="none"/><path d="M983.814 640.042 983.814 250.533" stroke="#EBEBEB" stroke-width="1.4257" stroke-linejoin="round" stroke-miterlimit="10" fill="none"/><path d="M1003.93 640.042 1003.93 250.533" stroke="#EBEBEB" stroke-width="1.4257" stroke-linejoin="round" stroke-miterlimit="10" fill="none"/><path d="M1024.05 640.042 1024.05 250.533" stroke="#EBEBEB" stroke-width="1.4257" stroke-linejoin="round" stroke-miterlimit="10" fill="none"/><path d="M1044.19 640.042 1044.19 250.533" stroke="#EBEBEB" stroke-width="1.4257" stroke-linejoin="round" stroke-miterlimit="10" fill="none"/><path d="M1064.31 640.042 1064.31 250.533" stroke="#EBEBEB" stroke-width="1.4257" stroke-linejoin="round" stroke-miterlimit="10" fill="none"/><path d="M1084.44 640.042 1084.44 250.533" stroke="#EBEBEB" stroke-width="1.4257" stroke-linejoin="round" stroke-miterlimit="10" fill="none"/><path d="M1104.56 640.042 1104.56 250.533" stroke="#EBEBEB" stroke-width="1.4257" stroke-linejoin="round" stroke-miterlimit="10" fill="none"/><path d="M1124.69 640.042 1124.69 250.533" stroke="#EBEBEB" stroke-width="1.4257" stroke-linejoin="round" stroke-miterlimit="10" fill="none"/><path d="M1144.81 640.042 1144.81 250.533" stroke="#EBEBEB" stroke-width="1.4257" stroke-linejoin="round" stroke-miterlimit="10" fill="none"/><path d="M1164.93 640.042 1164.93 250.533" stroke="#EBEBEB" stroke-width="1.4257" stroke-linejoin="round" stroke-miterlimit="10" fill="none"/><path d="M1185.06 640.042 1185.06 250.533" stroke="#EBEBEB" stroke-width="1.4257" stroke-linejoin="round" stroke-miterlimit="10" fill="none"/><path d="M1205.18 640.042 1205.18 250.533" stroke="#EBEBEB" stroke-width="1.4257" stroke-linejoin="round" stroke-miterlimit="10" fill="none"/><path d="M1225.32 640.042 1225.32 250.533" stroke="#EBEBEB" stroke-width="1.4257" stroke-linejoin="round" stroke-miterlimit="10" fill="none"/><path d="M762.431 622.307 782.551 622.307 802.684 622.307 822.804 622.307 842.937 622.307 863.056 622.307 883.189 622.307 903.309 622.294 923.429 618.563 943.562 594.246 963.681 538.964 983.814 461.363 1003.93 397.78 1024.05 363.123 1044.19 360.565 1064.31 384.855 1084.44 449.038 1104.56 519.59 1124.69 586.185 1144.81 618.19 1164.93 622.294 1185.06 622.307 1205.18 622.307 1225.32 622.294" stroke="#440154" stroke-width="2.27845" stroke-linejoin="round" stroke-miterlimit="10" fill="none"/><path d="M762.431 622.334 782.551 622.334 802.684 622.294 822.804 622.321 842.937 622.241 863.056 622.214 883.189 622.227 903.309 622.227 923.429 619.589 943.562 598.91 963.681 549.983 983.814 475.58 1003.93 404.442 1024.05 369.412 1044.19 368.36 1064.31 396.5 1084.44 457.459 1104.56 529.677 1124.69 591.395 1144.81 619.443 1164.93 622.334 1185.06 622.334 1205.18 622.334 1225.32 622.334" stroke="#3B528B" stroke-width="2.27845" stroke-linejoin="round" stroke-miterlimit="10" fill="none"/><path d="M762.431 622.307 782.551 622.307 802.684 622.307 822.804 622.307 842.937 622.307 863.056 622.307 883.189 622.307 903.309 622.294 923.429 617.311 943.562 588.13 963.681 532.115 983.814 434.755 1003.93 373.263 1024.05 322.737 1044.19 308.68 1064.31 332.131 1084.44 406.121 1104.56 502.748 1124.69 579.683 1144.81 617.697 1164.93 622.294 1185.06 622.294 1205.18 622.307 1225.32 622.307" stroke="#21908C" stroke-width="2.27845" stroke-linejoin="round" stroke-miterlimit="10" fill="none"/><path d="M762.431 621.987 782.551 621.934 802.684 621.921 822.804 621.841 842.937 621.854 863.056 621.881 883.189 621.814 903.309 621.854 923.429 617.444 943.562 587.744 963.681 526.332 983.814 433.569 1003.93 355.395 1024.05 306.788 1044.19 296.502 1064.31 314.756 1084.44 393.289 1104.56 490.69 1124.69 574.953 1144.81 615.512 1164.93 621.734 1185.06 621.947 1205.18 621.947 1225.32 621.934" stroke="#5DC863" stroke-width="2.27845" stroke-linejoin="round" stroke-miterlimit="10" fill="none"/><path d="M762.431 622.307 782.551 622.307 802.684 622.307 822.804 622.307 842.937 622.307 863.056 622.307 883.189 622.307 903.309 622.294 923.429 616.658 943.562 583.653 963.681 519.99 983.814 419.472 1003.93 328.92 1024.05 270.253 1044.19 268.241 1064.31 324.669 1084.44 390.198 1104.56 490.383 1124.69 574.207 1144.81 617.004 1164.93 622.294 1185.06 622.307 1205.18 622.307 1225.32 622.307" stroke="#FDE725" stroke-width="2.27845" stroke-linejoin="round" stroke-miterlimit="10" fill="none"/><path d="M739.287 250.533 1248.45 250.533 1248.45 640.042 739.287 640.042Z" stroke="#333333" stroke-width="1.4257" stroke-linecap="round" stroke-linejoin="round" stroke-miterlimit="10" fill="none"/></g><text fill="#4D4D4D" font-family="Arial,Arial_MSFontService,sans-serif" font-weight="400" font-size="9" transform="matrix(1.33243 0 0 1.33243 699.407 627)">0</text><text fill="#4D4D4D" font-family="Arial,Arial_MSFontService,sans-serif" font-weight="400" font-size="9" transform="matrix(1.33243 0 0 1.33243 706.069 627)">e</text><text fill="#4D4D4D" font-family="Arial,Arial_MSFontService,sans-serif" font-weight="400" font-size="9" transform="matrix(1.33243 0 0 1.33243 712.732 627)">+</text><text fill="#4D4D4D" font-family="Arial,Arial_MSFontService,sans-serif" font-weight="400" font-size="9" transform="matrix(1.33243 0 0 1.33243 719.394 627)">00</text><text fill="#4D4D4D" font-family="Arial,Arial_MSFontService,sans-serif" font-weight="400" font-size="9" transform="matrix(1.33243 0 0 1.33243 702.072 503)">2</text><text fill="#4D4D4D" font-family="Arial,Arial_MSFontService,sans-serif" font-weight="400" font-size="9" transform="matrix(1.33243 0 0 1.33243 708.734 503)">e</text><text fill="#4D4D4D" font-family="Arial,Arial_MSFontService,sans-serif" font-weight="400" font-size="9" transform="matrix(1.33243 0 0 1.33243 715.396 503)">-</text><text fill="#4D4D4D" font-family="Arial,Arial_MSFontService,sans-serif" font-weight="400" font-size="9" transform="matrix(1.33243 0 0 1.33243 719.394 503)">07</text><text fill="#4D4D4D" font-family="Arial,Arial_MSFontService,sans-serif" font-weight="400" font-size="9" transform="matrix(1.33243 0 0 1.33243 702.072 379)">4</text><text fill="#4D4D4D" font-family="Arial,Arial_MSFontService,sans-serif" font-weight="400" font-size="9" transform="matrix(1.33243 0 0 1.33243 708.734 379)">e</text><text fill="#4D4D4D" font-family="Arial,Arial_MSFontService,sans-serif" font-weight="400" font-size="9" transform="matrix(1.33243 0 0 1.33243 715.396 379)">-</text><text fill="#4D4D4D" font-family="Arial,Arial_MSFontService,sans-serif" font-weight="400" font-size="9" transform="matrix(1.33243 0 0 1.33243 719.394 379)">07</text><text fill="#4D4D4D" font-family="Arial,Arial_MSFontService,sans-serif" font-weight="400" font-size="9" transform="matrix(1.33243 0 0 1.33243 702.072 255)">6</text><text fill="#4D4D4D" font-family="Arial,Arial_MSFontService,sans-serif" font-weight="400" font-size="9" transform="matrix(1.33243 0 0 1.33243 708.734 255)">e</text><text fill="#4D4D4D" font-family="Arial,Arial_MSFontService,sans-serif" font-weight="400" font-size="9" transform="matrix(1.33243 0 0 1.33243 715.396 255)">-</text><text fill="#4D4D4D" font-family="Arial,Arial_MSFontService,sans-serif" font-weight="400" font-size="9" transform="matrix(1.33243 0 0 1.33243 719.394 255)">07</text><path d="M735.636 622.307 739.287 622.307" stroke="#333333" stroke-width="1.4257" stroke-linejoin="round" stroke-miterlimit="10" fill="none"/><path d="M735.636 498.631 739.287 498.631" stroke="#333333" stroke-width="1.4257" stroke-linejoin="round" stroke-miterlimit="10" fill="none"/><path d="M735.636 374.942 739.287 374.942" stroke="#333333" stroke-width="1.4257" stroke-linejoin="round" stroke-miterlimit="10" fill="none"/><path d="M735.636 251.252 739.287 251.252" stroke="#333333" stroke-width="1.4257" stroke-linejoin="round" stroke-miterlimit="10" fill="none"/><path d="M762.431 643.693 762.431 640.042" stroke="#333333" stroke-width="1.4257" stroke-linejoin="round" stroke-miterlimit="10" fill="none"/><path d="M782.551 643.693 782.551 640.042" stroke="#333333" stroke-width="1.4257" stroke-linejoin="round" stroke-miterlimit="10" fill="none"/><path d="M802.684 643.693 802.684 640.042" stroke="#333333" stroke-width="1.4257" stroke-linejoin="round" stroke-miterlimit="10" fill="none"/><path d="M822.804 643.693 822.804 640.042" stroke="#333333" stroke-width="1.4257" stroke-linejoin="round" stroke-miterlimit="10" fill="none"/><path d="M842.937 643.693 842.937 640.042" stroke="#333333" stroke-width="1.4257" stroke-linejoin="round" stroke-miterlimit="10" fill="none"/><path d="M863.056 643.693 863.056 640.042" stroke="#333333" stroke-width="1.4257" stroke-linejoin="round" stroke-miterlimit="10" fill="none"/><path d="M883.189 643.693 883.189 640.042" stroke="#333333" stroke-width="1.4257" stroke-linejoin="round" stroke-miterlimit="10" fill="none"/><path d="M903.309 643.693 903.309 640.042" stroke="#333333" stroke-width="1.4257" stroke-linejoin="round" stroke-miterlimit="10" fill="none"/><path d="M923.429 643.693 923.429 640.042" stroke="#333333" stroke-width="1.4257" stroke-linejoin="round" stroke-miterlimit="10" fill="none"/><path d="M943.562 643.693 943.562 640.042" stroke="#333333" stroke-width="1.4257" stroke-linejoin="round" stroke-miterlimit="10" fill="none"/><path d="M963.681 643.693 963.681 640.042" stroke="#333333" stroke-width="1.4257" stroke-linejoin="round" stroke-miterlimit="10" fill="none"/><path d="M983.814 643.693 983.814 640.042" stroke="#333333" stroke-width="1.4257" stroke-linejoin="round" stroke-miterlimit="10" fill="none"/><path d="M1003.93 643.693 1003.93 640.042" stroke="#333333" stroke-width="1.4257" stroke-linejoin="round" stroke-miterlimit="10" fill="none"/><path d="M1024.05 643.693 1024.05 640.042" stroke="#333333" stroke-width="1.4257" stroke-linejoin="round" stroke-miterlimit="10" fill="none"/><path d="M1044.19 643.693 1044.19 640.042" stroke="#333333" stroke-width="1.4257" stroke-linejoin="round" stroke-miterlimit="10" fill="none"/><path d="M1064.31 643.693 1064.31 640.042" stroke="#333333" stroke-width="1.4257" stroke-linejoin="round" stroke-miterlimit="10" fill="none"/><path d="M1084.44 643.693 1084.44 640.042" stroke="#333333" stroke-width="1.4257" stroke-linejoin="round" stroke-miterlimit="10" fill="none"/><path d="M1104.56 643.693 1104.56 640.042" stroke="#333333" stroke-width="1.4257" stroke-linejoin="round" stroke-miterlimit="10" fill="none"/><path d="M1124.69 643.693 1124.69 640.042" stroke="#333333" stroke-width="1.4257" stroke-linejoin="round" stroke-miterlimit="10" fill="none"/><path d="M1144.81 643.693 1144.81 640.042" stroke="#333333" stroke-width="1.4257" stroke-linejoin="round" stroke-miterlimit="10" fill="none"/><path d="M1164.93 643.693 1164.93 640.042" stroke="#333333" stroke-width="1.4257" stroke-linejoin="round" stroke-miterlimit="10" fill="none"/><path d="M1185.06 643.693 1185.06 640.042" stroke="#333333" stroke-width="1.4257" stroke-linejoin="round" stroke-miterlimit="10" fill="none"/><path d="M1205.18 643.693 1205.18 640.042" stroke="#333333" stroke-width="1.4257" stroke-linejoin="round" stroke-miterlimit="10" fill="none"/><path d="M1225.32 643.693 1225.32 640.042" stroke="#333333" stroke-width="1.4257" stroke-linejoin="round" stroke-miterlimit="10" fill="none"/><text fill="#4D4D4D" font-family="Arial,Arial_MSFontService,sans-serif" font-weight="400" font-size="9" transform="matrix(1.33243 0 0 1.33243 759.1 655)">0</text><text fill="#4D4D4D" font-family="Arial,Arial_MSFontService,sans-serif" font-weight="400" font-size="9" transform="matrix(1.33243 0 0 1.33243 779.22 655)">1</text><text fill="#4D4D4D" font-family="Arial,Arial_MSFontService,sans-serif" font-weight="400" font-size="9" transform="matrix(1.33243 0 0 1.33243 799.353 655)">2</text><text fill="#4D4D4D" font-family="Arial,Arial_MSFontService,sans-serif" font-weight="400" font-size="9" transform="matrix(1.33243 0 0 1.33243 819.472 655)">3</text><text fill="#4D4D4D" font-family="Arial,Arial_MSFontService,sans-serif" font-weight="400" font-size="9" transform="matrix(1.33243 0 0 1.33243 839.605 655)">4</text><text fill="#4D4D4D" font-family="Arial,Arial_MSFontService,sans-serif" font-weight="400" font-size="9" transform="matrix(1.33243 0 0 1.33243 859.725 655)">5</text><text fill="#4D4D4D" font-family="Arial,Arial_MSFontService,sans-serif" font-weight="400" font-size="9" transform="matrix(1.33243 0 0 1.33243 879.858 655)">6</text><text fill="#4D4D4D" font-family="Arial,Arial_MSFontService,sans-serif" font-weight="400" font-size="9" transform="matrix(1.33243 0 0 1.33243 899.978 655)">7</text><text fill="#4D4D4D" font-family="Arial,Arial_MSFontService,sans-serif" font-weight="400" font-size="9" transform="matrix(1.33243 0 0 1.33243 920.097 655)">8</text><text fill="#4D4D4D" font-family="Arial,Arial_MSFontService,sans-serif" font-weight="400" font-size="9" transform="matrix(1.33243 0 0 1.33243 940.23 655)">9</text><text fill="#4D4D4D" font-family="Arial,Arial_MSFontService,sans-serif" font-weight="400" font-size="9" transform="matrix(1.33243 0 0 1.33243 957.019 655)">10</text><text fill="#4D4D4D" font-family="Arial,Arial_MSFontService,sans-serif" font-weight="400" font-size="9" transform="matrix(1.33243 0 0 1.33243 977.818 655)">11</text><text fill="#4D4D4D" font-family="Arial,Arial_MSFontService,sans-serif" font-weight="400" font-size="9" transform="matrix(1.33243 0 0 1.33243 997.272 655)">12</text><text fill="#4D4D4D" font-family="Arial,Arial_MSFontService,sans-serif" font-weight="400" font-size="9" transform="matrix(1.33243 0 0 1.33243 1017.39 655)">13</text><text fill="#4D4D4D" font-family="Arial,Arial_MSFontService,sans-serif" font-weight="400" font-size="9" transform="matrix(1.33243 0 0 1.33243 1037.52 655)">14</text><text fill="#4D4D4D" font-family="Arial,Arial_MSFontService,sans-serif" font-weight="400" font-size="9" transform="matrix(1.33243 0 0 1.33243 1057.64 655)">15</text><text fill="#4D4D4D" font-family="Arial,Arial_MSFontService,sans-serif" font-weight="400" font-size="9" transform="matrix(1.33243 0 0 1.33243 1077.78 655)">16</text><text fill="#4D4D4D" font-family="Arial,Arial_MSFontService,sans-serif" font-weight="400" font-size="9" transform="matrix(1.33243 0 0 1.33243 1097.9 655)">17</text><text fill="#4D4D4D" font-family="Arial,Arial_MSFontService,sans-serif" font-weight="400" font-size="9" transform="matrix(1.33243 0 0 1.33243 1118.03 655)">18</text><text fill="#4D4D4D" font-family="Arial,Arial_MSFontService,sans-serif" font-weight="400" font-size="9" transform="matrix(1.33243 0 0 1.33243 1138.15 655)">19</text><text fill="#4D4D4D" font-family="Arial,Arial_MSFontService,sans-serif" font-weight="400" font-size="9" transform="matrix(1.33243 0 0 1.33243 1158.27 655)">20</text><text fill="#4D4D4D" font-family="Arial,Arial_MSFontService,sans-serif" font-weight="400" font-size="9" transform="matrix(1.33243 0 0 1.33243 1178.4 655)">21</text><text fill="#4D4D4D" font-family="Arial,Arial_MSFontService,sans-serif" font-weight="400" font-size="9" transform="matrix(1.33243 0 0 1.33243 1198.52 655)">22</text><text fill="#4D4D4D" font-family="Arial,Arial_MSFontService,sans-serif" font-weight="400" font-size="9" transform="matrix(1.33243 0 0 1.33243 1218.65 655)">23</text><text font-family="Arial,Arial_MSFontService,sans-serif" font-weight="400" font-size="11" transform="matrix(1.33243 0 0 1.33243 935.247 672)">Hour of day </text><text font-family="Arial,Arial_MSFontService,sans-serif" font-weight="400" font-size="11" transform="matrix(1.33243 0 0 1.33243 1015.19 672)">(</text><text font-family="Arial,Arial_MSFontService,sans-serif" font-weight="400" font-size="11" transform="matrix(1.33243 0 0 1.33243 1020.52 672)">UTC</text><text font-family="Arial,Arial_MSFontService,sans-serif" font-weight="400" font-size="11" transform="matrix(1.33243 0 0 1.33243 1047.17 672)">)</text><text font-family="Arial,Arial_MSFontService,sans-serif" font-weight="400" font-size="11" transform="matrix(8.15877e-17 -1.33243 1.33243 8.15877e-17 693.038 465)">jHNO</text><text font-family="Arial,Arial_MSFontService,sans-serif" font-weight="400" font-size="11" transform="matrix(8.15877e-17 -1.33243 1.33243 8.15877e-17 693.038 433)">3</text><path d="M827.267 198.302 1160.47 198.302 1160.47 235.93 827.267 235.93Z" fill="#FFFFFF"/><path d="M841.871 205.603 864.895 205.603 864.895 228.628 841.871 228.628Z" fill="#FFFFFF"/><path d="M844.176 217.116 862.59 217.116" stroke="#440154" stroke-width="2.27845" stroke-linejoin="round" stroke-miterlimit="10" fill="none"/><path d="M905.587 205.603 928.612 205.603 928.612 228.628 905.587 228.628Z" fill="#FFFFFF"/><path d="M907.892 217.116 926.32 217.116" stroke="#3B528B" stroke-width="2.27845" stroke-linejoin="round" stroke-miterlimit="10" fill="none"/><path d="M969.317 205.603 992.342 205.603 992.342 228.628 969.317 228.628Z" fill="#FFFFFF"/><path d="M971.609 217.116 990.037 217.116" stroke="#21908C" stroke-width="2.27845" stroke-linejoin="round" stroke-miterlimit="10" fill="none"/><path d="M1033.03 205.603 1056.06 205.603 1056.06 228.628 1033.03 228.628Z" fill="#FFFFFF"/><path d="M1035.34 217.116 1053.75 217.116" stroke="#5DC863" stroke-width="2.27845" stroke-linejoin="round" stroke-miterlimit="10" fill="none"/><path d="M1096.75 205.603 1119.78 205.603 1119.78 228.628 1096.75 228.628Z" fill="#FFFFFF"/><path d="M1099.06 217.116 1117.47 217.116" stroke="#FDE725" stroke-width="2.27845" stroke-linejoin="round" stroke-miterlimit="10" fill="none"/><text font-family="Arial,Arial_MSFontService,sans-serif" font-weight="400" font-size="9" transform="matrix(1.33243 0 0 1.33243 872.197 221)">2017</text><text font-family="Arial,Arial_MSFontService,sans-serif" font-weight="400" font-size="9" transform="matrix(1.33243 0 0 1.33243 935.913 221)">2018</text><text font-family="Arial,Arial_MSFontService,sans-serif" font-weight="400" font-size="9" transform="matrix(1.33243 0 0 1.33243 999.643 221)">2020</text><text font-family="Arial,Arial_MSFontService,sans-serif" font-weight="400" font-size="9" transform="matrix(1.33243 0 0 1.33243 1063.36 221)">2021</text><text font-family="Arial,Arial_MSFontService,sans-serif" font-weight="400" font-size="9" transform="matrix(1.33243 0 0 1.33243 1127.08 221)">2023</text></g></svg>